<svg width="92" height="52" viewBox="0 0 92 52" fill="none" xmlns="http://www.w3.org/2000/svg">
  <g clip-path="url(#clip0_521_625)">
    <path d="M52.5087 42.9328C50.5137 46.6857 47.2718 49.9883 43.1721 51.0691C40.3868 51.6296 37.5184 51.6296 34.7332 51.0691C28.5408 50.1805 22.4226 48.8324 16.4289 47.036C11.611 45.5749 6.67332 44.7642 3.4015 40.491C1.33612 37.7866 0.315718 34.4239 0.528677 31.0237C0.731913 28.9367 1.22548 26.8886 1.99501 24.939C2.84289 22.5772 3.9202 20.2854 4.98753 18.0137C13.4165 19.5448 21.8653 23.1877 30.2444 25.2893C38.6234 27.3909 47.0524 29.2223 55.581 30.8235C55.8204 30.8235 56.1197 30.9736 56.1396 31.2138C56.1596 31.454 54.5137 39.1699 52.5087 42.9328Z" fill="#DADADA" stroke="#1C383C" stroke-width="1.5" stroke-miterlimit="10" />
    <path d="M64.8379 29.8928C64.9183 30.3837 64.8037 30.8867 64.5187 31.2938C64.2388 31.5494 63.8996 31.7309 63.5321 31.8218C63.1646 31.9127 62.7803 31.9101 62.414 31.8142C60.9975 31.6241 59.4215 31.2838 59.4215 31.2838C59.3434 31.6016 59.1435 31.8755 58.8651 32.0461C58.5868 32.2166 58.2525 32.27 57.9352 32.1945L2.41397 18.3839C2.0965 18.3034 1.82334 18.1008 1.6535 17.8199C1.48365 17.5391 1.43076 17.2024 1.50623 16.8827L2.32419 13.5902C2.36143 13.4313 2.43005 13.2816 2.52598 13.1498C2.62191 13.0179 2.74321 12.9068 2.8827 12.8228C3.0222 12.7388 3.17705 12.6838 3.33812 12.6609C3.49919 12.638 3.6632 12.6477 3.82045 12.6895L10.9726 14.4709C11.4357 13.7682 12.0392 13.1696 12.745 12.7131C13.4507 12.2566 14.2432 11.9521 15.0723 11.8188C16.6181 11.787 18.1545 12.0661 19.591 12.6395C28.1197 15.4817 36.4788 19.1245 45.3965 20.3354C46.5189 20.4066 47.6151 20.7063 48.6185 21.2161C49.1209 21.4789 49.5192 21.9056 49.7476 22.4259C49.9761 22.9461 50.0211 23.5289 49.8753 24.0783V24.1483L59.3217 26.5001C59.4801 26.5375 59.6293 26.6064 59.7607 26.7026C59.8921 26.7988 60.0029 26.9205 60.0866 27.0605C60.1703 27.2004 60.2252 27.3558 60.248 27.5174C60.2708 27.679 60.2611 27.8435 60.2195 28.0013L60.1496 28.3215C61.1471 28.3215 64.0898 28.5817 64.419 28.892C64.6651 29.1699 64.8124 29.5219 64.8379 29.8928Z" fill="#F49825" stroke="#1C383C" stroke-width="1.5" stroke-miterlimit="10" />
    <path d="M32.6783 29.6929C32.1717 29.8371 31.7028 30.0912 31.3047 30.437C30.9066 30.7828 30.5889 31.212 30.3741 31.6944C29.9576 32.6842 29.7602 33.753 29.7955 34.8268C29.7728 36.1972 30.0238 37.5583 30.5337 38.8299C31.0324 40.0308 32.0599 41.2217 33.3466 41.1417C33.7153 41.1037 34.071 40.9844 34.3883 40.7923C34.7056 40.6003 34.9767 40.3402 35.1821 40.0308C35.5945 39.3944 35.8697 38.6786 35.99 37.9292C36.4589 35.6674 36.6085 28.7521 32.6783 29.6929Z" fill="white" stroke="#1C383C" stroke-width="1.5" stroke-miterlimit="10" />
    <path d="M22.813 27.3307C22.1613 27.419 21.5475 27.689 21.0414 28.1101C20.5353 28.5312 20.1572 29.0864 19.9501 29.7125C19.5566 30.9817 19.5153 32.3345 19.8304 33.6255C20.0054 34.813 20.4527 35.9435 21.1371 36.9281C21.4843 37.4173 21.9417 37.8173 22.4721 38.0955C23.0026 38.3738 23.591 38.5224 24.1895 38.5293C24.6498 38.5251 25.0981 38.3822 25.4763 38.119C26.0309 37.6285 26.4065 36.9664 26.5436 36.2376C27.212 33.5855 27.0125 27.0905 22.813 27.3307Z" fill="white" stroke="#1C383C" stroke-width="1.5" stroke-miterlimit="10" />
    <path d="M22.5236 30.6635C22.6133 31.5927 22.8177 32.5071 23.1321 33.3856C23.3445 34.3034 23.8154 35.1407 24.4887 35.7975C24.6511 35.9588 24.8687 36.0518 25.0972 36.0577C25.2433 36.0287 25.3792 35.9617 25.4913 35.8633C25.6033 35.765 25.6876 35.6387 25.7356 35.4973C26.3601 34.2176 26.6387 32.7957 26.5436 31.3741C26.5171 30.5651 26.261 29.7804 25.8054 29.1123C25.4164 28.5919 24.2094 27.6112 23.3715 27.9815C22.5336 28.3518 22.4937 30.023 22.5236 30.6635Z" fill="#1C383C" stroke="#1C383C" stroke-width="1.5" stroke-miterlimit="10" />
    <path d="M33.7356 30.7334C33.3466 31.1464 33.1199 31.6867 33.0972 32.2545C32.8447 34.2491 33.1921 36.2739 34.0947 38.069C34.2244 38.3192 34.5037 38.6194 34.763 38.4793C34.843 38.4309 34.9085 38.3618 34.9526 38.2792C35.7346 36.6838 36.0789 34.9083 35.9501 33.1352C35.9102 32.2145 35.3815 29.2522 33.7356 30.7334Z" fill="#1C383C" stroke="#1C383C" stroke-width="1.5" stroke-miterlimit="10" />
    <path d="M25.7956 42.3223C25.7854 42.9058 25.8835 43.4861 26.0849 44.0336C26.1889 44.3108 26.3528 44.5614 26.565 44.7674C26.7772 44.9733 27.0323 45.1294 27.3119 45.2245C27.5889 45.2992 27.8796 45.3073 28.1604 45.2482C28.4411 45.189 28.7041 45.0644 28.9278 44.8842C29.3646 44.4956 29.6654 43.9763 29.7857 43.4031" stroke="#1C383C" stroke-width="1.5" stroke-miterlimit="10" />
    <path d="M5.67586 25.9497C4.76813 28.4516 3.83047 31.0636 4.16962 33.6957C4.27164 34.4119 4.44542 35.116 4.68833 35.7973C5.20325 37.3669 6.11789 38.7744 7.34169 39.8804" stroke="#1C383C" stroke-width="1.5" stroke-miterlimit="10" />
    <path d="M44.5883 23.7981C39.7659 23.0456 35.0193 21.8668 30.4038 20.2754" stroke="#1C383C" stroke-width="1.5" stroke-miterlimit="10" />
    <path d="M22.0151 18.0137C22.2021 18.0247 22.3851 18.0723 22.5538 18.1537L25.4565 19.2937" stroke="#1C383C" stroke-width="1.5" stroke-miterlimit="10" />
    <path d="M65.5061 22.5172C66.1609 22.3988 66.7632 22.0805 67.2309 21.6059C67.6987 21.1313 68.009 20.5234 68.1196 19.8652C68.3162 18.5431 68.1578 17.1924 67.6608 15.9522C67.2509 14.7163 66.7439 13.5149 66.1446 12.3594C65.6358 11.3587 65.0373 10.2778 65.3266 9.19699C65.6159 8.11616 66.8328 7.37559 67.96 6.8752C72.2232 4.89911 76.5923 3.16178 81.0473 1.6712C82.6932 1.14079 83.9401 1.91138 85.0373 3.13232C86.9943 5.33149 88.5326 7.87211 89.576 10.6281C90.4619 12.6716 90.7021 14.9384 90.2642 17.1231C90.1817 17.64 89.9714 18.1279 89.6526 18.5422C89.3337 18.9565 88.9164 19.2841 88.4388 19.4949C87.3116 20.0954 86.1346 20.6158 84.9675 21.1262L78.0548 24.1285C76.8877 24.6389 75.0623 25.9399 73.7954 25.1292C73.4293 24.7967 73.1014 24.4241 72.8179 24.0184C71.9973 23.1569 70.8973 22.6175 69.7156 22.4972C68.3143 22.3866 66.9063 22.3933 65.5061 22.5172Z" fill="white" stroke="#1C383C" stroke-width="1.5" stroke-miterlimit="10" />
    <path d="M75.1023 15.6721C74.4976 15.4078 73.9697 14.9937 73.5684 14.4685C73.1671 13.9433 72.9054 13.3243 72.8081 12.6698C72.7217 12.0136 72.8868 11.3489 73.2701 10.8102C73.6534 10.2715 74.2263 9.8988 74.8729 9.76756C75.8166 9.76544 76.7259 10.1232 77.4166 10.7683C77.2545 10.121 77.3222 9.43733 77.608 8.83466C77.8938 8.23199 78.3798 7.74799 78.9826 7.46579C79.4232 7.30897 79.8942 7.25788 80.358 7.3166C80.8218 7.37532 81.2654 7.54222 81.6533 7.80393C82.0411 8.06565 82.3625 8.41488 82.5917 8.82366C82.8208 9.23243 82.9513 9.68937 82.9727 10.1579C82.9417 11.3146 82.7913 12.4649 82.5238 13.5905C82.2859 15.0393 81.905 16.4607 81.3866 17.8338C81.2171 18.2741 76.6585 16.4627 76.2196 16.2626C75.7807 16.0624 75.4614 15.8723 75.1023 15.6721Z" fill="#E30613" />
  </g>
  <defs>
    <clipPath id="clip0_521_625">
      <rect width="92" height="52" fill="white" />
    </clipPath>
  </defs>
</svg>