<?xml version="1.0" standalone="no"?>
<!DOCTYPE svg PUBLIC "-//W3C//DTD SVG 20010904//EN"
 "http://www.w3.org/TR/2001/REC-SVG-20010904/DTD/svg10.dtd">
<svg version="1.0" xmlns="http://www.w3.org/2000/svg"
 width="184.000000pt" height="184.000000pt" viewBox="0 0 184.000000 184.000000"
 preserveAspectRatio="xMidYMid meet">
<metadata>
Created by potrace 1.14, written by Peter Selinger 2001-2017
</metadata>
<g transform="translate(0.000000,184.000000) scale(0.100000,-0.100000)"
fill="#000000" stroke="none">
<path d="M1471 1366 c-133 -55 -181 -85 -181 -116 0 -8 13 -47 30 -85 35 -82
37 -118 10 -145 -30 -30 -25 -37 35 -42 43 -4 62 -11 83 -31 16 -15 37 -27 48
-27 31 0 287 118 307 141 12 15 17 39 17 81 0 73 -42 169 -103 235 -53 58 -78
57 -246 -11z m235 -18 c46 -55 86 -153 86 -209 0 -30 -5 -56 -13 -64 -16 -16
-264 -125 -283 -125 -7 0 -21 9 -31 20 -10 11 -34 24 -54 30 -36 9 -36 10 -36
62 0 37 -9 72 -29 115 -16 34 -26 69 -22 78 7 19 125 75 240 116 88 31 97 29
142 -23z"/>
<path d="M1562 1278 c-7 -7 -12 -20 -12 -30 0 -14 -6 -16 -30 -12 -65 13 -84
-57 -27 -99 32 -24 126 -61 135 -52 7 7 32 118 32 146 0 47 -66 79 -98 47z"/>
<path d="M245 1194 l-38 -25 -74 17 c-89 21 -100 15 -110 -64 -5 -48 -4 -52
20 -61 l25 -10 -30 -73 c-77 -184 -34 -352 108 -430 105 -57 436 -136 606
-145 102 -6 110 -4 162 21 94 46 165 150 201 294 15 65 17 67 48 69 143 8 156
14 144 65 -5 20 -15 27 -46 32 -22 3 -44 13 -49 22 -4 8 -35 22 -68 30 -32 8
-76 20 -96 25 -22 6 -38 16 -38 24 0 31 -42 53 -129 69 -99 18 -214 52 -408
120 -72 25 -145 46 -161 46 -16 0 -46 -11 -67 -26z m240 -60 c164 -59 308
-100 393 -115 84 -14 102 -24 102 -53 0 -21 8 -26 68 -40 137 -34 140 -35 138
-54 -1 -14 9 -18 47 -20 32 -2 47 -7 44 -15 -3 -8 -22 -11 -56 -9 -28 2 -51
-1 -51 -6 0 -5 -252 54 -560 131 l-561 140 7 31 c3 17 8 34 10 37 2 4 38 -2
81 -13 l76 -19 26 25 c37 38 85 34 236 -20z m117 -215 c271 -67 495 -123 497
-125 8 -7 -31 -133 -59 -191 -57 -119 -137 -172 -260 -173 -146 0 -541 97
-638 157 -120 74 -145 223 -67 398 13 30 26 55 29 55 3 0 227 -55 498 -121z"/>
<path d="M440 1080 c0 -13 10 -24 26 -30 34 -13 41 -13 48 5 4 10 -6 20 -31
30 -44 19 -43 19 -43 -5z"/>
<path d="M605 1040 c-4 -6 -3 -16 1 -20 16 -16 188 -61 238 -63 55 -2 76 18
29 28 -38 9 -213 52 -239 60 -13 4 -25 2 -29 -5z"/>
<path d="M89 898 c-17 -32 -23 -140 -10 -179 6 -19 22 -47 35 -64 21 -25 25
-27 31 -13 4 10 -2 29 -16 47 -29 39 -35 119 -16 184 13 39 13 47 1 47 -7 0
-19 -10 -25 -22z"/>
<path d="M409 881 c-57 -57 -31 -183 45 -220 58 -28 96 16 96 110 0 121 -73
178 -141 110z m50 -138 c6 -12 20 -28 32 -36 17 -13 18 -15 4 -21 -23 -9 -52
10 -70 44 -18 35 -20 111 -2 129 10 10 13 2 18 -41 3 -30 11 -63 18 -75z"/>
<path d="M610 835 c-32 -34 -39 -125 -13 -175 56 -109 148 -53 141 86 -5 79
-27 114 -71 114 -23 0 -41 -8 -57 -25z m42 -45 c-5 -54 5 -106 25 -125 19 -19
4 -41 -22 -31 -40 15 -58 141 -25 181 20 24 26 18 22 -25z"/>
<path d="M500 577 c0 -24 31 -57 54 -57 13 0 31 9 42 21 15 17 16 22 4 29 -10
6 -17 4 -23 -5 -12 -21 -35 -18 -42 5 -7 22 -35 28 -35 7z"/>
</g>
</svg>
