<svg width="38" height="38" fill="none" xmlns="http://www.w3.org/2000/svg"><mask id="a" style="mask-type:alpha" maskUnits="userSpaceOnUse" x="0" y="0" width="38" height="38"><circle cx="19" cy="19" r="18.25" fill="#fff" stroke="#1C383C" stroke-width="1.5"/></mask><g clip-path="url(#b)" stroke="#1C383C" stroke-width="1.5" stroke-miterlimit="10" mask="url(#a)"><path d="M-13.552 23.874c1.61 4.89 4.792 9.49 9.51 11.639a26.178 26.178 0 0 0 10.146 1.799c7.646.244 15.3-.075 22.9-.954 6.096-.713 12.193-.628 17.07-5.01a17.003 17.003 0 0 0 5.463-10.601 26.4 26.4 0 0 0-.415-7.462c-.512-2.994-1.317-5.952-2.06-8.862-10.475 0-21.424 2.56-31.947 3.296-10.523.737-21.18 1.087-31.777 1.208-.292 0-.67 0-.756.35-.085.35.256 9.695 1.866 14.597Z" fill="#DADADA"/><path d="M-25.55 5.788a2.226 2.226 0 0 0 .073 1.726c.283.366.655.655 1.081.841.427.186.893.262 1.357.222 1.744.072 3.72 0 3.72 0 .024.388.201.752.493 1.013.291.262.674.4 1.067.387L51.976 5.33c.4-.028.773-.21 1.037-.51a1.5 1.5 0 0 0 .377-1.084l-.28-4.08a1.475 1.475 0 0 0-.512-1.028 1.504 1.504 0 0 0-1.098-.361l-9.011.604a7.365 7.365 0 0 0-1.763-2.465 7.453 7.453 0 0 0-2.614-1.556 14.147 14.147 0 0 0-5.61 0C21.639-3.593 10.799-1.034-.187-1.529a10.242 10.242 0 0 0-4.073.362A3.045 3.045 0 0 0-5.857.043a2.995 2.995 0 0 0-.489 1.93.227.227 0 0 0 0 .084l-11.876.797a1.499 1.499 0 0 0-1.055.537A1.468 1.468 0 0 0-19.6 4.52v.398c-1.22-.193-4.792-.543-5.256-.241-.354.28-.6.672-.695 1.11Z" fill="#F49825"/><path d="M13.151 12.356c.58.284 1.089.69 1.491 1.192.403.5.689 1.083.838 1.706a8.68 8.68 0 0 1 0 3.839 12.492 12.492 0 0 1-1.731 4.636c-.878 1.328-2.366 2.523-3.89 2.161a3.13 3.13 0 0 1-1.169-.656c-.337-.3-.604-.67-.782-1.082a6.596 6.596 0 0 1-.524-2.669c-.061-2.837 1.231-11.083 5.767-9.127ZM25.528 11.643c.771.24 1.458.69 1.982 1.298a4.23 4.23 0 0 1 .981 2.143 8.855 8.855 0 0 1-.683 4.672 9.526 9.526 0 0 1-2.292 3.623 4.682 4.682 0 0 1-1.856 1.071 4.715 4.715 0 0 1-2.144.136 2.9 2.9 0 0 1-1.463-.76 3.972 3.972 0 0 1-.89-2.476c-.28-3.236 1.354-10.89 6.365-9.707Z" fill="#fff"/><path d="M25.15 15.7a13.531 13.531 0 0 1-1.305 3.103 5.978 5.978 0 0 1-2.146 2.584c-.233.155-.515.22-.793.18a1.011 1.011 0 0 1-.646-.808 9.759 9.759 0 0 1-.097-5.059 5.164 5.164 0 0 1 1.378-2.535c.573-.532 2.23-1.45 3.17-.821.939.627.622 2.535.439 3.356ZM11.651 13.37c.377.575.533 1.265.44 1.944a12.109 12.109 0 0 1-2.44 6.689c-.219.277-.609.567-.902.35a.639.639 0 0 1-.17-.29 11.959 11.959 0 0 1-.073-6.363c.182-1.05 1.475-4.443 3.145-2.33Z" fill="#1C383C"/><path d="M18.736 32.132a6.549 6.549 0 0 0 3.787-.004 6.49 6.49 0 0 0 3.14-2.097M22.175 1.127a81.11 81.11 0 0 0 14.022-2.535"/></g><circle cx="19" cy="19" r="18.25" stroke="#1C383C" stroke-width="1.5"/><defs><clipPath id="b"><path fill="#fff" transform="translate(-26.294 -6.032)" d="M0 0h80.294v44.032H0z"/></clipPath></defs></svg>