<svg width="710" height="182" fill="none" xmlns="http://www.w3.org/2000/svg"><path d="M242.876 74.552c1.713-14.4.321-29.782 7.171-42.436 10.488-19.418 35.317-24.218 56.936-26.182 72.668-6.327 145.765-3.709 218.647-1.2 41.846 1.528 82.514.655 123.504 10.582 17.766 4.255 36.495 10.8 47.09 25.854 6.528 9.273 9.204 20.728 10.809 32.073 4.495 32.073-6.528 47.018-36.387 55.309-22.047 6.109-44.629 9.709-67.318 12.436-60.574 7.309-121.577 8.182-182.473 5.891-30.074-1.091-60.04-3.055-90.113-5.345-13.913-1.091-27.826-2.837-41.739-3.6-11.452-.655-23.117.545-33.07-6.655-6.1-4.473-8.669-10.909-13.057-16.8-1.712-2.182-4.174-4.254-6.421-5.782-.955-.648-8.134-4.69-8.455-4.254 7.599-9.382 13.378-17.455 14.876-29.89Z" fill="#fff" stroke="#1B383C" stroke-width="3" stroke-miterlimit="10" stroke-linejoin="round"/><path d="M173.959 131.331c-2.112 12.676-8.144 25.352-18.701 32.293-7.238 4.829-15.683 6.64-24.129 8.451-18.7 3.622-37.4 5.735-56.402 6.64-15.08.604-30.161 3.32-43.734-5.734-8.445-5.433-14.779-14.186-17.494-24.145-1.81-6.037-2.11-12.375-1.81-18.713 0-7.545.906-15.09 1.509-22.636 25.637-3.923 53.386-2.112 79.325-4.225 26.24-2.415 52.179-5.433 78.118-9.356.603 0 1.81 0 2.111.603.603.604 3.318 24.145 1.207 36.822Z" fill="#D9D9D9" stroke="#1B383C" stroke-width="4" stroke-miterlimit="10"/><path d="M196.278 81.834c.604 1.207.905 3.018.604 4.225-.905 2.113-3.318 3.018-5.429 3.622-4.223.905-9.049 1.509-9.049 1.509.302 2.113-1.206 3.924-3.318 3.924L6.864 110.505c-2.111.302-3.92-1.207-3.92-3.32l-.906-10.262c-.301-2.112 1.207-3.923 3.318-3.923l22.018-1.811c.603-4.527 5.73-9.96 9.049-11.469 4.222-1.81 9.048-2.113 13.572-2.113 27.146-.301 54.593 1.811 81.436-3.621 3.318-.604 6.636-1.51 9.954-.604 3.317.604 6.333 3.622 6.333 6.942v.301l29.257-2.716c2.111-.302 3.921 1.208 3.921 3.32v.906c3.016-.906 11.461-3.32 12.668-2.717 1.508.604 2.413 1.51 2.714 2.415Z" fill="#FF9820" stroke="#1B383C" stroke-width="4" stroke-miterlimit="10"/><path d="M104.286 113.222c-2.715 1.811-4.223 4.829-4.525 8.149-.301 3.32.302 6.338 1.509 9.356 1.206 3.924 3.317 7.546 6.032 10.866 2.714 3.018 6.635 5.432 10.255 3.923 2.111-.905 3.619-3.018 4.222-5.131.604-2.112.604-4.527.302-6.941-.905-6.942-7.54-26.862-17.795-20.222ZM73.823 116.241c-3.62 1.509-5.73 5.735-6.032 9.658-.302 3.924 1.508 7.847 3.62 11.167 1.809 3.018 3.92 6.036 6.936 8.149 3.017 2.113 6.938 2.716 10.255 1.509 1.207-.603 2.413-1.207 3.318-2.414 1.206-1.811 1.508-4.226 1.206-6.338-.603-8.451-7.54-26.56-19.303-21.731Z" fill="#fff" stroke="#1B383C" stroke-width="4" stroke-miterlimit="10"/><path d="M76.236 125.898c.905 2.716 2.714 4.829 4.524 7.244 1.508 2.112 3.318 4.527 6.334 5.432.603.302 1.206.302 2.111 0 .905-.302 1.207-1.509 1.207-2.113.603-4.225 0-8.752-1.81-12.374-.905-2.113-2.111-4.225-4.223-5.734-1.508-1.208-6.032-2.717-8.143-.906-2.112 1.811-.604 6.64 0 8.451ZM108.509 115.034c-.905 1.509-.604 3.32-.302 4.829 1.206 5.734 4.222 11.469 8.445 15.694.603.604 1.81 1.207 2.413.604.302-.302.302-.604.302-.906 1.206-5.131-.604-10.563-2.112-15.694-1.206-2.414-5.73-10.262-8.746-4.527Z" fill="#1B383C" stroke="#1B383C" stroke-miterlimit="10"/><path d="M97.047 156.079c.603 1.811 1.206 3.32 2.413 4.829 1.206 1.207 3.016 2.415 4.826 2.113 1.809 0 3.317-1.207 4.222-2.716.905-1.509 1.207-3.32.905-5.131M23.453 129.219c-.302 8.149-.302 16.298 3.318 23.541.905 1.811 2.111 3.622 3.62 5.433 3.015 3.923 6.936 7.243 11.46 9.054M132.638 84.55c-14.478 2.717-29.257 3.924-44.036 3.924M62.361 90.284c.604-.302 1.207-.302 1.508-.302 3.017 0 6.334.302 9.35.302" stroke="#1B383C" stroke-width="4" stroke-miterlimit="10"/><path d="m310.994 58-3.72-14.54h2.59l1.44 6.91 1.12 5.64h.1l1.06-5.64 1.43-6.91h2.76l1.44 6.91 1.06 5.64h.1l1.2-5.64 1.52-6.91h2.6l-3.9 14.54h-3.08l-1.68-7.54-.61-3.64h-.05l-.62 3.64-1.67 7.54h-3.09Zm20.229.15c-1.054 0-1.967-.213-2.74-.64-.767-.433-1.357-1.07-1.77-1.91-.414-.84-.62-1.87-.62-3.09 0-1.187.216-2.2.65-3.04.44-.847 1.043-1.49 1.81-1.93.766-.447 1.646-.67 2.64-.67.98 0 1.816.193 2.51.58.7.387 1.233.96 1.6 1.72.366.753.55 1.68.55 2.78 0 .213-.007.39-.02.53-.007.14-.017.307-.03.5h-7.36c.06 1.113.333 1.933.82 2.46.486.52 1.083.78 1.79.78.66 0 1.163-.14 1.51-.42.353-.287.58-.607.68-.96h2.28c-.06.7-.28 1.3-.66 1.8-.38.493-.884.87-1.51 1.13-.62.253-1.33.38-2.13.38Zm-1.7-6.78h3.98c-.02-.8-.214-1.417-.58-1.85-.367-.44-.97-.66-1.81-.66-.874 0-1.524.293-1.95.88-.427.58-.667 1.383-.72 2.41.053-.3.166-.503.34-.61.173-.113.42-.17.74-.17Zm16.439 6.82c-1.08 0-2.007-.237-2.78-.71a4.71 4.71 0 0 1-1.78-2c-.407-.853-.61-1.843-.61-2.97 0-1.187.21-2.2.63-3.04.42-.84 1.003-1.48 1.75-1.92.746-.447 1.606-.67 2.58-.67.966 0 1.776.18 2.43.54.66.353 1.153.83 1.48 1.43.326.593.476 1.257.45 1.99h-2.27a2.54 2.54 0 0 0-.14-.8 1.57 1.57 0 0 0-.39-.62 1.64 1.64 0 0 0-.64-.4 2.695 2.695 0 0 0-.91-.14c-.934-.007-1.597.313-1.99.96-.387.647-.58 1.52-.58 2.62 0 1.253.233 2.19.7 2.81.473.613 1.21.923 2.21.93.233 0 .486-.067.76-.2.28-.14.516-.337.71-.59.2-.26.296-.57.29-.93h2.25c.026.767-.157 1.427-.55 1.98-.387.553-.9.98-1.54 1.28-.64.3-1.327.45-2.06.45Zm9.021-.07c-.666 0-1.256-.123-1.77-.37a3.008 3.008 0 0 1-1.21-1.05c-.286-.447-.43-.963-.43-1.55 0-.647.117-1.18.35-1.6.234-.42.57-.753 1.01-1 .447-.253.97-.447 1.57-.58.427-.093.877-.17 1.35-.23.48-.06.924-.107 1.33-.14.407-.04.72-.067.94-.08v-.44c0-.74-.15-1.293-.45-1.66-.293-.373-.793-.56-1.5-.56-.453 0-.833.057-1.14.17-.306.107-.54.313-.7.62-.153.3-.236.74-.25 1.32h-2.15c-.073-.94.06-1.71.4-2.31.347-.607.86-1.053 1.54-1.34.687-.293 1.497-.44 2.43-.44.554 0 1.074.063 1.56.19.494.12.93.33 1.31.63.38.293.68.697.9 1.21.22.513.33 1.163.33 1.95V58h-2.31l.03-2.45c-.126.74-.446 1.353-.96 1.84-.513.487-1.24.73-2.18.73Zm.63-1.78c.347 0 .697-.06 1.05-.18.36-.12.674-.293.94-.52.274-.227.447-.493.52-.8v-2a12.29 12.29 0 0 0-.95.14c-.36.067-.67.127-.93.18-.746.153-1.286.357-1.62.61-.326.247-.49.627-.49 1.14 0 .293.067.55.2.77.14.213.324.377.55.49.227.113.47.17.73.17ZM363.31 58V42.44h2.36V58h-2.36Zm9.781.19c-1.08 0-2.007-.237-2.78-.71a4.71 4.71 0 0 1-1.78-2c-.407-.853-.61-1.843-.61-2.97 0-1.187.21-2.2.63-3.04.42-.84 1.003-1.48 1.75-1.92.746-.447 1.606-.67 2.58-.67.966 0 1.776.18 2.43.54.66.353 1.153.83 1.48 1.43.326.593.476 1.257.45 1.99h-2.27a2.54 2.54 0 0 0-.14-.8 1.57 1.57 0 0 0-.39-.62 1.64 1.64 0 0 0-.64-.4 2.695 2.695 0 0 0-.91-.14c-.934-.007-1.597.313-1.99.96-.387.647-.58 1.52-.58 2.62 0 1.253.233 2.19.7 2.81.473.613 1.21.923 2.21.93.233 0 .486-.067.76-.2.28-.14.516-.337.71-.59.2-.26.296-.57.29-.93h2.25c.026.767-.157 1.427-.55 1.98-.387.553-.9.98-1.54 1.28-.64.3-1.327.45-2.06.45Zm9.332.03c-.946 0-1.706-.33-2.28-.99-.573-.66-.86-1.607-.86-2.84v-7.31h2.36v6.68c0 .533.06.973.18 1.32.12.347.31.6.57.76.26.16.597.24 1.01.24.5 0 .95-.143 1.35-.43.407-.293.694-.623.86-.99v-7.58h2.36V58h-2.01l-.27-4.12.18.83c-.08.6-.24 1.167-.48 1.7a3.1 3.1 0 0 1-1.07 1.31c-.473.333-1.106.5-1.9.5Zm8.523-.22V42.44h2.36V58h-2.36Zm8.1.12c-.667 0-1.257-.123-1.77-.37a3 3 0 0 1-1.21-1.05c-.287-.447-.43-.963-.43-1.55 0-.647.117-1.18.35-1.6.233-.42.57-.753 1.01-1 .447-.253.97-.447 1.57-.58.427-.093.877-.17 1.35-.23.48-.06.923-.107 1.33-.14.407-.04.72-.067.94-.08v-.44c0-.74-.15-1.293-.45-1.66-.293-.373-.793-.56-1.5-.56-.453 0-.833.057-1.14.17-.307.107-.54.313-.7.62-.153.3-.237.74-.25 1.32h-2.15c-.073-.94.06-1.71.4-2.31.347-.607.86-1.053 1.54-1.34.687-.293 1.497-.44 2.43-.44.553 0 1.073.063 1.56.19.493.12.93.33 1.31.63.38.293.68.697.9 1.21.22.513.33 1.163.33 1.95V58h-2.31l.03-2.45c-.127.74-.447 1.353-.96 1.84-.513.487-1.24.73-2.18.73Zm.63-1.78c.347 0 .697-.06 1.05-.18.36-.12.673-.293.94-.52.273-.227.447-.493.52-.8v-2a12.22 12.22 0 0 0-.95.14c-.36.067-.67.127-.93.18-.747.153-1.287.357-1.62.61-.327.247-.49.627-.49 1.14 0 .293.067.55.2.77.14.213.323.377.55.49.227.113.47.17.73.17Zm10.547 1.82c-.867 0-1.544-.22-2.03-.66-.48-.447-.72-1.083-.72-1.91v-5.52c0-.22.046-.417.14-.59a.627.627 0 0 1 .41-.34l-.55-1.62v-.29l.53-3.27h1.8V55c0 .387.083.657.25.81.173.153.493.23.96.23h.83l.69-.02v2.01c-.347.06-.727.097-1.14.11-.414.013-.804.02-1.17.02Zm-4.18-9.02v-2.06h6.51v2.06h-6.51Zm12.895 9.01c-1.054 0-1.967-.213-2.74-.64-.767-.433-1.357-1.07-1.77-1.91-.414-.84-.62-1.87-.62-3.09 0-1.187.216-2.2.65-3.04.44-.847 1.043-1.49 1.81-1.93.766-.447 1.646-.67 2.64-.67.98 0 1.816.193 2.51.58.7.387 1.233.96 1.6 1.72.366.753.55 1.68.55 2.78 0 .213-.007.39-.02.53-.007.14-.017.307-.03.5h-7.36c.06 1.113.333 1.933.82 2.46.486.52 1.083.78 1.79.78.66 0 1.163-.14 1.51-.42.353-.287.58-.607.68-.96h2.28c-.06.7-.28 1.3-.66 1.8-.38.493-.884.87-1.51 1.13-.62.253-1.33.38-2.13.38Zm-1.7-6.78h3.98c-.02-.8-.214-1.417-.58-1.85-.367-.44-.97-.66-1.81-.66-.874 0-1.524.293-1.95.88-.427.58-.667 1.383-.72 2.41.053-.3.166-.503.34-.61.173-.113.42-.17.74-.17Zm16.259 6.78c-1.007 0-1.884-.217-2.63-.65-.747-.433-1.327-1.07-1.74-1.91-.414-.847-.62-1.883-.62-3.11 0-1.16.216-2.16.65-3 .44-.84 1.04-1.483 1.8-1.93.76-.453 1.62-.68 2.58-.68 1.04 0 1.93.227 2.67.68.746.447 1.32 1.09 1.72 1.93.4.84.6 1.84.6 3 0 1.227-.224 2.263-.67 3.11-.44.84-1.04 1.477-1.8 1.91-.76.433-1.614.65-2.56.65Zm.04-2.01c.766 0 1.393-.287 1.88-.86.486-.573.73-1.507.73-2.8 0-1.2-.237-2.1-.71-2.7-.474-.6-1.12-.9-1.94-.9a2.32 2.32 0 0 0-1.88.89c-.48.593-.72 1.497-.72 2.71 0 1.233.243 2.153.73 2.76.493.6 1.13.9 1.91.9Zm10.332 2.08c-.947 0-1.707-.33-2.28-.99-.574-.66-.86-1.607-.86-2.84v-7.31h2.36v6.68c0 .533.06.973.18 1.32.12.347.31.6.57.76.26.16.596.24 1.01.24.5 0 .95-.143 1.35-.43.406-.293.693-.623.86-.99v-7.58h2.36V58h-2.01l-.27-4.12.18.83c-.08.6-.24 1.167-.48 1.7-.234.533-.59.97-1.07 1.31-.474.333-1.107.5-1.9.5Zm8.522-.22V47.08h2.02l.26 4.21-.21-.58c.047-.44.133-.887.26-1.34.133-.453.32-.87.56-1.25.247-.38.56-.683.94-.91.387-.233.857-.35 1.41-.35.133 0 .267.007.4.02.133.013.257.037.37.07v2.52a3.154 3.154 0 0 0-.73-.14 6.714 6.714 0 0 0-.7-.04c-.26 0-.54.053-.84.16-.3.1-.577.253-.83.46a1.767 1.767 0 0 0-.55.77V58h-2.36Zm16.686.12c-.72 0-1.293-.12-1.72-.36-.427-.24-.74-.52-.94-.84-.2-.327-.327-.613-.38-.86l-.8.04.93-.79c.047.167.15.33.31.49.16.153.393.28.7.38.307.093.683.14 1.13.14.747 0 1.36-.29 1.84-.87.487-.58.73-1.55.73-2.91 0-1.173-.227-2.073-.68-2.7-.453-.633-1.033-.95-1.74-.95-.5 0-.913.07-1.24.21-.32.14-.563.303-.73.49-.167.187-.273.353-.32.5v-.75c.013-.22.07-.467.17-.74.107-.28.277-.55.51-.81.24-.267.553-.483.94-.65.393-.173.88-.26 1.46-.26.88 0 1.62.237 2.22.71.6.473 1.053 1.123 1.36 1.95.313.82.47 1.753.47 2.8 0 .967-.12 1.813-.36 2.54-.233.72-.553 1.32-.96 1.8-.4.48-.85.84-1.35 1.08-.5.24-1.017.36-1.55.36Zm-5.26 3.91V47.08h2.32l.03 1.51v6.81l-.13.66.13 1.95v4.02h-2.35ZM475.575 58V47.08h2.02l.26 4.21-.21-.58a8.08 8.08 0 0 1 .26-1.34c.133-.453.32-.87.56-1.25.246-.38.56-.683.94-.91.386-.233.856-.35 1.41-.35.133 0 .266.007.4.02.133.013.256.037.37.07v2.52a3.154 3.154 0 0 0-.73-.14 6.73 6.73 0 0 0-.7-.04c-.26 0-.54.053-.84.16-.3.1-.577.253-.83.46a1.759 1.759 0 0 0-.55.77V58h-2.36Zm7.774 0V47.08h2.39l-.03 10.92h-2.36Zm1.21-12.53c-.434 0-.8-.15-1.1-.45-.3-.307-.45-.697-.45-1.17 0-.467.15-.847.45-1.14.3-.293.666-.44 1.1-.44.42 0 .78.147 1.08.44.306.293.46.673.46 1.14 0 .473-.154.863-.46 1.17-.3.3-.66.45-1.08.45Zm8.59 12.72c-1.08 0-2.006-.237-2.78-.71a4.724 4.724 0 0 1-1.78-2c-.406-.853-.61-1.843-.61-2.97 0-1.187.21-2.2.63-3.04.42-.84 1.004-1.48 1.75-1.92.747-.447 1.607-.67 2.58-.67.967 0 1.777.18 2.43.54.66.353 1.154.83 1.48 1.43.327.593.477 1.257.45 1.99h-2.27a2.485 2.485 0 0 0-.14-.8 1.549 1.549 0 0 0-.39-.62 1.634 1.634 0 0 0-.64-.4 2.69 2.69 0 0 0-.91-.14c-.933-.007-1.596.313-1.99.96-.386.647-.58 1.52-.58 2.62 0 1.253.234 2.19.7 2.81.474.613 1.21.923 2.21.93.234 0 .487-.067.76-.2.28-.14.517-.337.71-.59.2-.26.297-.57.29-.93h2.25c.027.767-.156 1.427-.55 1.98-.386.553-.9.98-1.54 1.28-.64.3-1.326.45-2.06.45Zm10.671-.04c-1.053 0-1.966-.213-2.74-.64-.766-.433-1.356-1.07-1.77-1.91-.413-.84-.62-1.87-.62-3.09 0-1.187.217-2.2.65-3.04.44-.847 1.044-1.49 1.81-1.93.767-.447 1.647-.67 2.64-.67.98 0 1.817.193 2.51.58.7.387 1.234.96 1.6 1.72.367.753.55 1.68.55 2.78 0 .213-.006.39-.02.53-.006.14-.016.307-.03.5h-7.36c.06 1.113.334 1.933.82 2.46.487.52 1.084.78 1.79.78.66 0 1.164-.14 1.51-.42.354-.287.58-.607.68-.96h2.28c-.06.7-.28 1.3-.66 1.8-.38.493-.883.87-1.51 1.13-.62.253-1.33.38-2.13.38Zm-1.7-6.78h3.98c-.02-.8-.213-1.417-.58-1.85-.366-.44-.97-.66-1.81-.66-.873 0-1.523.293-1.95.88-.426.58-.666 1.383-.72 2.41.054-.3.167-.503.34-.61.174-.113.42-.17.74-.17Zm12.398 6.8c-.82 0-1.553-.12-2.2-.36-.64-.24-1.15-.61-1.53-1.11-.373-.507-.58-1.153-.62-1.94h2.28c.087.56.31.957.67 1.19.367.233.817.35 1.35.35.387 0 .73-.037 1.03-.11.307-.08.547-.21.72-.39.18-.187.27-.437.27-.75 0-.22-.05-.4-.15-.54a1.138 1.138 0 0 0-.44-.38 4.018 4.018 0 0 0-.74-.3 46 46 0 0 0-1.02-.31c-.693-.2-1.323-.437-1.89-.71-.567-.273-1.017-.63-1.35-1.07-.333-.447-.5-1.027-.5-1.74 0-.973.36-1.733 1.08-2.28.72-.553 1.647-.83 2.78-.83.733 0 1.393.107 1.98.32.593.207 1.08.553 1.46 1.04.38.48.627 1.133.74 1.96l-2.28-.01c-.1-.387-.247-.683-.44-.89a1.51 1.51 0 0 0-.67-.44 2.43 2.43 0 0 0-.81-.13c-.32 0-.597.05-.83.15-.233.1-.413.24-.54.42-.127.18-.19.397-.19.65 0 .293.083.54.25.74.173.193.43.363.77.51.347.14.777.287 1.29.44.413.12.84.253 1.28.4.44.14.85.32 1.23.54.38.22.687.513.92.88.233.36.35.83.35 1.41 0 1.033-.39 1.84-1.17 2.42-.773.58-1.8.87-3.08.87Zm12.868-.05c-.667 0-1.257-.123-1.77-.37a2.994 2.994 0 0 1-1.21-1.05c-.287-.447-.43-.963-.43-1.55 0-.647.116-1.18.35-1.6.233-.42.57-.753 1.01-1 .446-.253.97-.447 1.57-.58.426-.093.876-.17 1.35-.23.48-.06.923-.107 1.33-.14.406-.04.72-.067.94-.08v-.44c0-.74-.15-1.293-.45-1.66-.294-.373-.794-.56-1.5-.56-.454 0-.834.057-1.14.17-.307.107-.54.313-.7.62-.154.3-.237.74-.25 1.32h-2.15c-.074-.94.06-1.71.4-2.31.346-.607.86-1.053 1.54-1.34.686-.293 1.496-.44 2.43-.44.553 0 1.073.063 1.56.19.493.12.93.33 1.31.63.38.293.68.697.9 1.21.22.513.33 1.163.33 1.95V58h-2.31l.03-2.45c-.127.74-.447 1.353-.96 1.84-.514.487-1.24.73-2.18.73Zm.63-1.78c.346 0 .696-.06 1.05-.18.36-.12.673-.293.94-.52a1.48 1.48 0 0 0 .52-.8v-2c-.267.027-.584.073-.95.14-.36.067-.67.127-.93.18-.747.153-1.287.357-1.62.61-.327.247-.49.627-.49 1.14 0 .293.066.55.2.77.14.213.323.377.55.49.226.113.47.17.73.17Zm12.125 1.85c-1.08 0-2.006-.237-2.78-.71a4.724 4.724 0 0 1-1.78-2c-.406-.853-.61-1.843-.61-2.97 0-1.187.21-2.2.63-3.04.42-.84 1.004-1.48 1.75-1.92.747-.447 1.607-.67 2.58-.67.967 0 1.777.18 2.43.54.66.353 1.154.83 1.48 1.43.327.593.477 1.257.45 1.99h-2.27a2.485 2.485 0 0 0-.14-.8 1.549 1.549 0 0 0-.39-.62 1.634 1.634 0 0 0-.64-.4 2.69 2.69 0 0 0-.91-.14c-.933-.007-1.596.313-1.99.96-.386.647-.58 1.52-.58 2.62 0 1.253.234 2.19.7 2.81.474.613 1.21.923 2.21.93.234 0 .487-.067.76-.2.28-.14.517-.337.71-.59.2-.26.297-.57.29-.93h2.25c.027.767-.156 1.427-.55 1.98-.386.553-.9.98-1.54 1.28-.64.3-1.326.45-2.06.45Zm10.743 0c-1.08 0-2.007-.237-2.78-.71a4.71 4.71 0 0 1-1.78-2c-.407-.853-.61-1.843-.61-2.97 0-1.187.21-2.2.63-3.04.42-.84 1.003-1.48 1.75-1.92.746-.447 1.606-.67 2.58-.67.966 0 1.776.18 2.43.54.66.353 1.153.83 1.48 1.43.326.593.476 1.257.45 1.99h-2.27a2.54 2.54 0 0 0-.14-.8 1.57 1.57 0 0 0-.39-.62 1.64 1.64 0 0 0-.64-.4 2.695 2.695 0 0 0-.91-.14c-.934-.007-1.597.313-1.99.96-.387.647-.58 1.52-.58 2.62 0 1.253.233 2.19.7 2.81.473.613 1.21.923 2.21.93.233 0 .486-.067.76-.2.28-.14.516-.337.71-.59.2-.26.296-.57.29-.93h2.25c.026.767-.157 1.427-.55 1.98-.387.553-.9.98-1.54 1.28-.64.3-1.327.45-2.06.45Zm10.562-.04c-1.007 0-1.884-.217-2.63-.65-.747-.433-1.327-1.07-1.74-1.91-.414-.847-.62-1.883-.62-3.11 0-1.16.216-2.16.65-3 .44-.84 1.04-1.483 1.8-1.93.76-.453 1.62-.68 2.58-.68 1.04 0 1.93.227 2.67.68.746.447 1.32 1.09 1.72 1.93.4.84.6 1.84.6 3 0 1.227-.224 2.263-.67 3.11-.44.84-1.04 1.477-1.8 1.91-.76.433-1.614.65-2.56.65Zm.04-2.01c.766 0 1.393-.287 1.88-.86.486-.573.73-1.507.73-2.8 0-1.2-.237-2.1-.71-2.7-.474-.6-1.12-.9-1.94-.9a2.32 2.32 0 0 0-1.88.89c-.48.593-.72 1.497-.72 2.71 0 1.233.243 2.153.73 2.76.493.6 1.13.9 1.91.9Zm7.233 1.86V47.08h2.02l.26 4.21-.21-.58a8.29 8.29 0 0 1 .26-1.34c.134-.453.32-.87.56-1.25.247-.38.56-.683.94-.91.387-.233.857-.35 1.41-.35.134 0 .267.007.4.02.134.013.257.037.37.07v2.52a3.144 3.144 0 0 0-.73-.14 6.7 6.7 0 0 0-.7-.04c-.26 0-.54.053-.84.16-.3.1-.576.253-.83.46a1.775 1.775 0 0 0-.55.77V58h-2.36Zm11.247.12c-.94 0-1.727-.243-2.36-.73-.633-.487-1.11-1.153-1.43-2-.32-.853-.48-1.823-.48-2.91 0-1.233.207-2.263.62-3.09.42-.833.96-1.46 1.62-1.88.66-.42 1.363-.63 2.11-.63.727 0 1.297.12 1.71.36.413.24.717.52.91.84.193.32.317.607.37.86l.69.09-.82.85a1.164 1.164 0 0 0-.32-.48c-.153-.16-.377-.29-.67-.39-.287-.1-.66-.15-1.12-.15-.78 0-1.423.287-1.93.86-.507.573-.76 1.51-.76 2.81 0 1.167.23 2.07.69 2.71.467.64 1.073.96 1.82.96.507 0 .917-.083 1.23-.25.32-.167.567-.357.74-.57.173-.22.28-.4.32-.54l.1.34-.1.36c-.033.213-.1.467-.2.76-.1.287-.26.57-.48.85-.213.28-.503.513-.87.7-.367.18-.83.27-1.39.27Zm2.95-.12-.01-15.56h2.35V58h-2.34Zm5.315 0V47.08h2.39l-.03 10.92h-2.36Zm1.21-12.53c-.433 0-.8-.15-1.1-.45-.3-.307-.45-.697-.45-1.17 0-.467.15-.847.45-1.14.3-.293.667-.44 1.1-.44.42 0 .78.147 1.08.44.307.293.46.673.46 1.14 0 .473-.153.863-.46 1.17-.3.3-.66.45-1.08.45ZM593.583 58V47.08h2.02l.26 4.12-.17-.83c.08-.6.236-1.167.47-1.7.24-.54.596-.977 1.07-1.31.473-.333 1.106-.5 1.9-.5 1.033 0 1.833.323 2.4.97.566.64.85 1.62.85 2.94V58h-2.36v-6.41c0-.627-.064-1.13-.19-1.51-.12-.38-.317-.653-.59-.82-.274-.173-.637-.26-1.09-.26-.494 0-.944.147-1.35.44-.4.287-.687.613-.86.98V58h-2.36Zm16.039 4.46c-.886 0-1.686-.147-2.4-.44-.706-.287-1.253-.727-1.64-1.32-.386-.593-.536-1.337-.45-2.23h2.28c-.006.38.04.72.14 1.02.1.307.31.55.63.73.32.18.807.27 1.46.27.567 0 1-.08 1.3-.24a1.22 1.22 0 0 0 .62-.73c.107-.327.16-.75.16-1.27v-2.96a3.21 3.21 0 0 1-.39.99c-.2.347-.51.64-.93.88-.42.233-.986.35-1.7.35-.646 0-1.223-.143-1.73-.43a4.054 4.054 0 0 1-1.29-1.16 5.558 5.558 0 0 1-.81-1.64 6.712 6.712 0 0 1-.27-1.9c0-1.213.2-2.227.6-3.04.407-.813.93-1.427 1.57-1.84.64-.413 1.317-.62 2.03-.62.634 0 1.144.087 1.53.26.394.173.7.383.92.63.22.247.38.49.48.73l.01-1.41h2.31v11.14c0 .987-.193 1.79-.58 2.41a3.352 3.352 0 0 1-1.57 1.36c-.666.293-1.426.447-2.28.46Zm-.11-6.84c.5 0 .904-.067 1.21-.2.307-.14.54-.303.7-.49.16-.193.26-.36.3-.5v-4.57a1.282 1.282 0 0 0-.37-.47 2.153 2.153 0 0 0-.71-.38c-.293-.1-.653-.15-1.08-.15-.74 0-1.346.273-1.82.82-.473.547-.71 1.403-.71 2.57 0 1.06.234 1.887.7 2.48.474.593 1.067.89 1.78.89ZM275.203 82.16c-.866 0-1.543-.22-2.03-.66-.48-.447-.72-1.083-.72-1.91v-5.52c0-.22.047-.417.14-.59a.63.63 0 0 1 .41-.34l-.55-1.62v-.29l.53-3.27h1.8V79c0 .387.084.657.25.81.174.153.494.23.96.23h.83c.254-.007.484-.013.69-.02v2.01c-.346.06-.726.097-1.14.11-.413.013-.803.02-1.17.02Zm-4.18-9.02v-2.06h6.51v2.06h-6.51Zm12.767 9.01c-1.007 0-1.884-.217-2.63-.65-.747-.433-1.327-1.07-1.74-1.91-.414-.847-.62-1.883-.62-3.11 0-1.16.216-2.16.65-3 .44-.84 1.04-1.483 1.8-1.93.76-.453 1.62-.68 2.58-.68 1.04 0 1.93.227 2.67.68.746.447 1.32 1.09 1.72 1.93.4.84.6 1.84.6 3 0 1.227-.224 2.263-.67 3.11-.44.84-1.04 1.477-1.8 1.91-.76.433-1.614.65-2.56.65Zm.04-2.01c.766 0 1.393-.287 1.88-.86.486-.573.73-1.507.73-2.8 0-1.2-.237-2.1-.71-2.7-.474-.6-1.12-.9-1.94-.9a2.32 2.32 0 0 0-1.88.89c-.48.593-.72 1.497-.72 2.71 0 1.233.243 2.153.73 2.76.493.6 1.13.9 1.91.9Zm14.186 2.02c-.867 0-1.544-.22-2.03-.66-.48-.447-.72-1.083-.72-1.91v-5.52c0-.22.046-.417.14-.59a.627.627 0 0 1 .41-.34l-.55-1.62v-.29l.53-3.27h1.8V79c0 .387.083.657.25.81.173.153.493.23.96.23h.83l.69-.02v2.01c-.347.06-.727.097-1.14.11-.414.013-.804.02-1.17.02Zm-4.18-9.02v-2.06h6.51v2.06h-6.51Zm8.711 8.86V66.44h2.34v4.65l-.16 3.11.09.88-.12-.71c.08-.6.234-1.167.46-1.7.234-.54.584-.977 1.05-1.31.474-.333 1.107-.5 1.9-.5 1.034 0 1.83.323 2.39.97.567.64.85 1.62.85 2.94V82h-2.37v-6.41c0-.927-.136-1.59-.41-1.99-.273-.4-.763-.6-1.47-.6-.486 0-.926.163-1.32.49-.386.32-.68.677-.88 1.07V82h-2.35Zm16.117.15c-1.053 0-1.966-.213-2.74-.64-.766-.433-1.356-1.07-1.77-1.91-.413-.84-.62-1.87-.62-3.09 0-1.187.217-2.2.65-3.04.44-.847 1.044-1.49 1.81-1.93.767-.447 1.647-.67 2.64-.67.98 0 1.817.193 2.51.58.7.387 1.234.96 1.6 1.72.367.753.55 1.68.55 2.78 0 .213-.006.39-.02.53-.006.14-.016.307-.03.5h-7.36c.06 1.113.334 1.933.82 2.46.487.52 1.084.78 1.79.78.66 0 1.164-.14 1.51-.42.354-.287.58-.607.68-.96h2.28c-.06.7-.28 1.3-.66 1.8-.38.493-.883.87-1.51 1.13-.62.253-1.33.38-2.13.38Zm-1.7-6.78h3.98c-.02-.8-.213-1.417-.58-1.85-.366-.44-.97-.66-1.81-.66-.873 0-1.523.293-1.95.88-.426.58-.666 1.383-.72 2.41.054-.3.167-.503.34-.61.174-.113.42-.17.74-.17Zm14.699 6.75c-.667 0-1.257-.123-1.77-.37a3 3 0 0 1-1.21-1.05c-.287-.447-.43-.963-.43-1.55 0-.647.117-1.18.35-1.6.233-.42.57-.753 1.01-1 .447-.253.97-.447 1.57-.58.427-.093.877-.17 1.35-.23.48-.06.923-.107 1.33-.14.407-.04.72-.067.94-.08v-.44c0-.74-.15-1.293-.45-1.66-.293-.373-.793-.56-1.5-.56-.453 0-.833.057-1.14.17-.307.107-.54.313-.7.62-.153.3-.237.74-.25 1.32h-2.15c-.073-.94.06-1.71.4-2.31.347-.607.86-1.053 1.54-1.34.687-.293 1.497-.44 2.43-.44.553 0 1.073.063 1.56.19.493.12.93.33 1.31.63.38.293.68.697.9 1.21.22.513.33 1.163.33 1.95V82h-2.31l.03-2.45c-.127.74-.447 1.353-.96 1.84-.513.487-1.24.73-2.18.73Zm.63-1.78c.347 0 .697-.06 1.05-.18.36-.12.673-.293.94-.52.273-.227.447-.493.52-.8v-2a12.22 12.22 0 0 0-.95.14c-.36.067-.67.127-.93.18-.747.153-1.287.357-1.62.61-.327.247-.49.627-.49 1.14 0 .293.067.55.2.77.14.213.323.377.55.49.227.113.47.17.73.17Zm7.696 1.66V71.08h2.03l.26 4.12-.17-.83c.08-.6.236-1.167.47-1.7.233-.54.586-.977 1.06-1.31.473-.333 1.103-.5 1.89-.5.873 0 1.576.25 2.11.75.54.493.873 1.253 1 2.28l.05.16V82h-2.37v-6.41c0-.627-.06-1.13-.18-1.51-.12-.38-.31-.653-.57-.82-.254-.173-.59-.26-1.01-.26-.494 0-.94.147-1.34.44-.4.287-.687.613-.86.98V82h-2.37Zm12.66 0v-6.41c0-.627-.06-1.13-.18-1.51-.12-.38-.31-.653-.57-.82-.254-.173-.59-.26-1.01-.26-.494 0-.94.147-1.34.44-.4.287-.687.613-.86.98l-.02.78-.16-.65c.066-.593.21-1.17.43-1.73a3.3 3.3 0 0 1 1.04-1.4c.466-.373 1.093-.56 1.88-.56.986 0 1.76.323 2.32.97.56.64.84 1.62.84 2.94V82h-2.37Zm9.559.15c-1.007 0-1.884-.217-2.63-.65-.747-.433-1.327-1.07-1.74-1.91-.414-.847-.62-1.883-.62-3.11 0-1.16.216-2.16.65-3 .44-.84 1.04-1.483 1.8-1.93.76-.453 1.62-.68 2.58-.68 1.04 0 1.93.227 2.67.68.746.447 1.32 1.09 1.72 1.93.4.84.6 1.84.6 3 0 1.227-.224 2.263-.67 3.11-.44.84-1.04 1.477-1.8 1.91-.76.433-1.614.65-2.56.65Zm.04-2.01c.766 0 1.393-.287 1.88-.86.486-.573.73-1.507.73-2.8 0-1.2-.237-2.1-.71-2.7-.474-.6-1.12-.9-1.94-.9a2.32 2.32 0 0 0-1.88.89c-.48.593-.72 1.497-.72 2.71 0 1.233.243 2.153.73 2.76.493.6 1.13.9 1.91.9Zm10.332 2.08c-.947 0-1.707-.33-2.28-.99-.574-.66-.86-1.607-.86-2.84v-7.31h2.36v6.68c0 .533.06.973.18 1.32.12.347.31.6.57.76.26.16.596.24 1.01.24.5 0 .95-.143 1.35-.43.406-.293.693-.623.86-.99v-7.58h2.36V82h-2.01l-.27-4.12.18.83c-.08.6-.24 1.167-.48 1.7-.234.533-.59.97-1.07 1.31-.474.333-1.107.5-1.9.5Zm8.522-.22V71.08h2.02l.26 4.12-.17-.83c.08-.6.237-1.167.47-1.7.24-.54.597-.977 1.07-1.31.473-.333 1.107-.5 1.9-.5 1.033 0 1.833.323 2.4.97.567.64.85 1.62.85 2.94V82h-2.36v-6.41c0-.627-.063-1.13-.19-1.51-.12-.38-.317-.653-.59-.82-.273-.173-.637-.26-1.09-.26-.493 0-.943.147-1.35.44-.4.287-.687.613-.86.98V82h-2.36Zm14.609.16c-.867 0-1.543-.22-2.03-.66-.48-.447-.72-1.083-.72-1.91v-5.52c0-.22.047-.417.14-.59a.627.627 0 0 1 .41-.34l-.55-1.62v-.29l.53-3.27h1.8V79c0 .387.083.657.25.81.173.153.493.23.96.23h.83l.69-.02v2.01c-.347.06-.727.097-1.14.11-.413.013-.803.02-1.17.02Zm-4.18-9.02v-2.06h6.51v2.06h-6.51Zm16.575 9.01c-1.007 0-1.883-.217-2.63-.65-.747-.433-1.327-1.07-1.74-1.91-.413-.847-.62-1.883-.62-3.11 0-1.16.217-2.16.65-3 .44-.84 1.04-1.483 1.8-1.93.76-.453 1.62-.68 2.58-.68 1.04 0 1.93.227 2.67.68.747.447 1.32 1.09 1.72 1.93.4.84.6 1.84.6 3 0 1.227-.223 2.263-.67 3.11-.44.84-1.04 1.477-1.8 1.91-.76.433-1.613.65-2.56.65Zm.04-2.01c.767 0 1.393-.287 1.88-.86.487-.573.73-1.507.73-2.8 0-1.2-.237-2.1-.71-2.7-.473-.6-1.12-.9-1.94-.9-.767 0-1.393.297-1.88.89-.48.593-.72 1.497-.72 2.71 0 1.233.243 2.153.73 2.76.493.6 1.13.9 1.91.9Zm7.798 1.86v-7.91c0-.233.047-.437.14-.61a.667.667 0 0 1 .39-.34l-.53-1.61v-1.74c0-.853.17-1.56.51-2.12a3.17 3.17 0 0 1 1.36-1.26 4.246 4.246 0 0 1 1.89-.42c.34 0 .62.01.84.03.22.02.417.04.59.06l-.01 2.23a3.506 3.506 0 0 0-.54-.14 4.145 4.145 0 0 0-.77-.06c-.347 0-.637.057-.87.17-.227.113-.397.313-.51.6-.107.287-.16.69-.16 1.21V82h-2.33Zm-1.62-8.86v-2.06h6.41v2.06h-6.41Zm16.442 9.05c-1.08 0-2.006-.237-2.78-.71a4.724 4.724 0 0 1-1.78-2c-.406-.853-.61-1.843-.61-2.97 0-1.187.21-2.2.63-3.04.42-.84 1.004-1.48 1.75-1.92.747-.447 1.607-.67 2.58-.67.967 0 1.777.18 2.43.54.66.353 1.154.83 1.48 1.43.327.593.477 1.257.45 1.99h-2.27a2.485 2.485 0 0 0-.14-.8 1.549 1.549 0 0 0-.39-.62 1.634 1.634 0 0 0-.64-.4 2.69 2.69 0 0 0-.91-.14c-.933-.007-1.596.313-1.99.96-.386.647-.58 1.52-.58 2.62 0 1.253.234 2.19.7 2.81.474.613 1.21.923 2.21.93.234 0 .487-.067.76-.2.28-.14.517-.337.71-.59.2-.26.297-.57.29-.93h2.25c.027.767-.156 1.427-.55 1.98-.386.553-.9.98-1.54 1.28-.64.3-1.326.45-2.06.45Zm10.563-.04c-1.007 0-1.884-.217-2.63-.65-.747-.433-1.327-1.07-1.74-1.91-.414-.847-.62-1.883-.62-3.11 0-1.16.216-2.16.65-3 .44-.84 1.04-1.483 1.8-1.93.76-.453 1.62-.68 2.58-.68 1.04 0 1.93.227 2.67.68.746.447 1.32 1.09 1.72 1.93.4.84.6 1.84.6 3 0 1.227-.224 2.263-.67 3.11-.44.84-1.04 1.477-1.8 1.91-.76.433-1.614.65-2.56.65Zm.04-2.01c.766 0 1.393-.287 1.88-.86.486-.573.73-1.507.73-2.8 0-1.2-.237-2.1-.71-2.7-.474-.6-1.12-.9-1.94-.9a2.32 2.32 0 0 0-1.88.89c-.48.593-.72 1.497-.72 2.71 0 1.233.243 2.153.73 2.76.493.6 1.13.9 1.91.9Zm7.272 1.86V71.08h2.02l.26 4.12-.17-.83c.08-.6.237-1.167.47-1.7.24-.54.597-.977 1.07-1.31.473-.333 1.107-.5 1.9-.5 1.033 0 1.833.323 2.4.97.567.64.85 1.62.85 2.94V82h-2.36v-6.41c0-.627-.063-1.13-.19-1.51-.12-.38-.317-.653-.59-.82-.273-.173-.637-.26-1.09-.26-.493 0-.943.147-1.35.44-.4.287-.687.613-.86.98V82h-2.36Zm14.609.16c-.867 0-1.543-.22-2.03-.66-.48-.447-.72-1.083-.72-1.91v-5.52c0-.22.047-.417.14-.59a.627.627 0 0 1 .41-.34l-.55-1.62v-.29l.53-3.27h1.8V79c0 .387.083.657.25.81.173.153.493.23.96.23h.83l.69-.02v2.01c-.347.06-.727.097-1.14.11-.413.013-.803.02-1.17.02Zm-4.18-9.02v-2.06h6.51v2.06h-6.51Zm11.402 8.98c-.667 0-1.257-.123-1.77-.37a2.994 2.994 0 0 1-1.21-1.05c-.287-.447-.43-.963-.43-1.55 0-.647.116-1.18.35-1.6.233-.42.57-.753 1.01-1 .446-.253.97-.447 1.57-.58.426-.093.876-.17 1.35-.23.48-.06.923-.107 1.33-.14.406-.04.72-.067.94-.08v-.44c0-.74-.15-1.293-.45-1.66-.294-.373-.794-.56-1.5-.56-.454 0-.834.057-1.14.17-.307.107-.54.313-.7.62-.154.3-.237.74-.25 1.32h-2.15c-.074-.94.06-1.71.4-2.31.346-.607.86-1.053 1.54-1.34.686-.293 1.496-.44 2.43-.44.553 0 1.073.063 1.56.19.493.12.93.33 1.31.63.38.293.68.697.9 1.21.22.513.33 1.163.33 1.95V82h-2.31l.03-2.45c-.127.74-.447 1.353-.96 1.84-.514.487-1.24.73-2.18.73Zm.63-1.78c.346 0 .696-.06 1.05-.18.36-.12.673-.293.94-.52a1.48 1.48 0 0 0 .52-.8v-2c-.267.027-.584.073-.95.14-.36.067-.67.127-.93.18-.747.153-1.287.357-1.62.61-.327.247-.49.627-.49 1.14 0 .293.066.55.2.77.14.213.323.377.55.49.226.113.47.17.73.17Zm7.696 1.66V71.08h2.39l-.03 10.92h-2.36Zm1.21-12.53c-.434 0-.8-.15-1.1-.45-.3-.307-.45-.697-.45-1.17 0-.467.15-.847.45-1.14.3-.293.666-.44 1.1-.44.42 0 .78.147 1.08.44.306.293.46.673.46 1.14 0 .473-.154.863-.46 1.17-.3.3-.66.45-1.08.45ZM484.149 82V71.08h2.02l.26 4.12-.17-.83c.08-.6.237-1.167.47-1.7.24-.54.597-.977 1.07-1.31.473-.333 1.107-.5 1.9-.5 1.033 0 1.833.323 2.4.97.567.64.85 1.62.85 2.94V82h-2.36v-6.41c0-.627-.063-1.13-.19-1.51-.12-.38-.317-.653-.59-.82-.273-.173-.637-.26-1.09-.26-.493 0-.943.147-1.35.44-.4.287-.687.613-.86.98V82h-2.36Zm16.117.15c-1.054 0-1.967-.213-2.74-.64-.767-.433-1.357-1.07-1.77-1.91-.414-.84-.62-1.87-.62-3.09 0-1.187.216-2.2.65-3.04.44-.847 1.043-1.49 1.81-1.93.766-.447 1.646-.67 2.64-.67.98 0 1.816.193 2.51.58.7.387 1.233.96 1.6 1.72.366.753.55 1.68.55 2.78 0 .213-.007.39-.02.53-.007.14-.017.307-.03.5h-7.36c.06 1.113.333 1.933.82 2.46.486.52 1.083.78 1.79.78.66 0 1.163-.14 1.51-.42.353-.287.58-.607.68-.96h2.28c-.06.7-.28 1.3-.66 1.8-.38.493-.884.87-1.51 1.13-.62.253-1.33.38-2.13.38Zm-1.7-6.78h3.98c-.02-.8-.214-1.417-.58-1.85-.367-.44-.97-.66-1.81-.66-.874 0-1.524.293-1.95.88-.427.58-.667 1.383-.72 2.41.053-.3.166-.503.34-.61.173-.113.42-.17.74-.17ZM507.02 82V71.08h2.02l.26 4.21-.21-.58c.047-.44.133-.887.26-1.34.133-.453.32-.87.56-1.25.247-.38.56-.683.94-.91.387-.233.857-.35 1.41-.35.133 0 .267.007.4.02.133.013.257.037.37.07v2.52a3.154 3.154 0 0 0-.73-.14 6.714 6.714 0 0 0-.7-.04c-.26 0-.54.053-.84.16-.3.1-.577.253-.83.46a1.767 1.767 0 0 0-.55.77V82h-2.36Zm11.424.17c-.82 0-1.553-.12-2.2-.36-.64-.24-1.15-.61-1.53-1.11-.373-.507-.58-1.153-.62-1.94h2.28c.087.56.31.957.67 1.19.367.233.817.35 1.35.35.387 0 .73-.037 1.03-.11.307-.08.547-.21.72-.39.18-.187.27-.437.27-.75 0-.22-.05-.4-.15-.54a1.138 1.138 0 0 0-.44-.38 4.018 4.018 0 0 0-.74-.3 46 46 0 0 0-1.02-.31c-.693-.2-1.323-.437-1.89-.71-.567-.273-1.017-.63-1.35-1.07-.333-.447-.5-1.027-.5-1.74 0-.973.36-1.733 1.08-2.28.72-.553 1.647-.83 2.78-.83.733 0 1.393.107 1.98.32.593.207 1.08.553 1.46 1.04.38.48.627 1.133.74 1.96l-2.28-.01c-.1-.387-.247-.683-.44-.89a1.51 1.51 0 0 0-.67-.44 2.43 2.43 0 0 0-.81-.13c-.32 0-.597.05-.83.15-.233.1-.413.24-.54.42-.127.18-.19.397-.19.65 0 .293.083.54.25.74.173.193.43.363.77.51.347.14.777.287 1.29.44.413.12.84.253 1.28.4.44.14.85.32 1.23.54.38.22.687.513.92.88.233.36.35.83.35 1.41 0 1.033-.39 1.84-1.17 2.42-.773.58-1.8.87-3.08.87Zm12.868-.05c-.667 0-1.257-.123-1.77-.37a2.994 2.994 0 0 1-1.21-1.05c-.287-.447-.43-.963-.43-1.55 0-.647.116-1.18.35-1.6.233-.42.57-.753 1.01-1 .446-.253.97-.447 1.57-.58.426-.093.876-.17 1.35-.23.48-.06.923-.107 1.33-.14.406-.04.72-.067.94-.08v-.44c0-.74-.15-1.293-.45-1.66-.294-.373-.794-.56-1.5-.56-.454 0-.834.057-1.14.17-.307.107-.54.313-.7.62-.154.3-.237.74-.25 1.32h-2.15c-.074-.94.06-1.71.4-2.31.346-.607.86-1.053 1.54-1.34.686-.293 1.496-.44 2.43-.44.553 0 1.073.063 1.56.19.493.12.93.33 1.31.63.38.293.68.697.9 1.21.22.513.33 1.163.33 1.95V82h-2.31l.03-2.45c-.127.74-.447 1.353-.96 1.84-.514.487-1.24.73-2.18.73Zm.63-1.78c.346 0 .696-.06 1.05-.18.36-.12.673-.293.94-.52a1.48 1.48 0 0 0 .52-.8v-2c-.267.027-.584.073-.95.14-.36.067-.67.127-.93.18-.747.153-1.287.357-1.62.61-.327.247-.49.627-.49 1.14 0 .293.066.55.2.77.14.213.323.377.55.49.226.113.47.17.73.17Zm7.715 1.66V71.08h2.02l.26 4.12-.17-.83c.08-.6.236-1.167.47-1.7.24-.54.596-.977 1.07-1.31.473-.333 1.106-.5 1.9-.5 1.033 0 1.833.323 2.4.97.566.64.85 1.62.85 2.94V82h-2.36v-6.41c0-.627-.064-1.13-.19-1.51-.12-.38-.317-.653-.59-.82-.274-.173-.637-.26-1.09-.26-.494 0-.944.147-1.35.44-.4.287-.687.613-.86.98V82h-2.36Zm15.309.12c-.94 0-1.727-.243-2.36-.73-.633-.487-1.11-1.153-1.43-2-.32-.853-.48-1.823-.48-2.91 0-1.233.207-2.263.62-3.09.42-.833.96-1.46 1.62-1.88.66-.42 1.363-.63 2.11-.63.727 0 1.297.12 1.71.36.413.24.717.52.91.84.193.32.317.607.37.86l.69.09-.82.85a1.164 1.164 0 0 0-.32-.48c-.153-.16-.377-.29-.67-.39-.287-.1-.66-.15-1.12-.15-.78 0-1.423.287-1.93.86-.507.573-.76 1.51-.76 2.81 0 1.167.23 2.07.69 2.71.467.64 1.073.96 1.82.96.507 0 .917-.083 1.23-.25.32-.167.567-.357.74-.57.173-.22.28-.4.32-.54l.1.34-.1.36c-.033.213-.1.467-.2.76-.1.287-.26.57-.48.85-.213.28-.503.513-.87.7-.367.18-.83.27-1.39.27Zm2.95-.12-.01-15.56h2.35V82h-2.34Zm12.558.12c-.94 0-1.727-.243-2.36-.73-.634-.487-1.11-1.153-1.43-2-.32-.853-.48-1.823-.48-2.91 0-1.233.206-2.263.62-3.09.42-.833.96-1.46 1.62-1.88.66-.42 1.363-.63 2.11-.63.726 0 1.296.12 1.71.36.413.24.716.52.91.84.193.32.316.607.37.86l.69.09-.82.85a1.174 1.174 0 0 0-.32-.48c-.154-.16-.377-.29-.67-.39-.287-.1-.66-.15-1.12-.15-.78 0-1.424.287-1.93.86-.507.573-.76 1.51-.76 2.81 0 1.167.23 2.07.69 2.71.466.64 1.073.96 1.82.96.506 0 .916-.083 1.23-.25.32-.167.566-.357.74-.57.173-.22.28-.4.32-.54l.1.34-.1.36c-.034.213-.1.467-.2.76-.1.287-.26.57-.48.85-.214.28-.504.513-.87.7-.367.18-.83.27-1.39.27Zm2.95-.12-.01-15.56h2.35V82h-2.34Zm9.693.15c-1.053 0-1.966-.213-2.74-.64-.766-.433-1.356-1.07-1.77-1.91-.413-.84-.62-1.87-.62-3.09 0-1.187.217-2.2.65-3.04.44-.847 1.044-1.49 1.81-1.93.767-.447 1.647-.67 2.64-.67.98 0 1.817.193 2.51.58.7.387 1.234.96 1.6 1.72.367.753.55 1.68.55 2.78 0 .213-.006.39-.02.53-.006.14-.016.307-.03.5h-7.36c.06 1.113.334 1.933.82 2.46.487.52 1.084.78 1.79.78.66 0 1.164-.14 1.51-.42.354-.287.58-.607.68-.96h2.28c-.06.7-.28 1.3-.66 1.8-.38.493-.883.87-1.51 1.13-.62.253-1.33.38-2.13.38Zm-1.7-6.78h3.98c-.02-.8-.213-1.417-.58-1.85-.366-.44-.97-.66-1.81-.66-.873 0-1.523.293-1.95.88-.426.58-.666 1.383-.72 2.41.054-.3.167-.503.34-.61.174-.113.42-.17.74-.17Zm8.475 6.63V66.44h2.36V82h-2.36Zm5.351 0V71.08h2.39l-.03 10.92h-2.36Zm1.21-12.53c-.433 0-.8-.15-1.1-.45-.3-.307-.45-.697-.45-1.17 0-.467.15-.847.45-1.14.3-.293.667-.44 1.1-.44.42 0 .78.147 1.08.44.307.293.46.673.46 1.14 0 .473-.153.863-.46 1.17-.3.3-.66.45-1.08.45ZM603.157 82l-3.8-10.91h2.68l1.4 5.06.95 3.53h.09l.95-3.52 1.4-5.07h2.68l-3.8 10.91h-2.55Zm12.441.15c-1.054 0-1.967-.213-2.74-.64-.767-.433-1.357-1.07-1.77-1.91-.414-.84-.62-1.87-.62-3.09 0-1.187.216-2.2.65-3.04.44-.847 1.043-1.49 1.81-1.93.766-.447 1.646-.67 2.64-.67.98 0 1.816.193 2.51.58.7.387 1.233.96 1.6 1.72.366.753.55 1.68.55 2.78 0 .213-.007.39-.02.53-.007.14-.017.307-.03.5h-7.36c.06 1.113.333 1.933.82 2.46.486.52 1.083.78 1.79.78.66 0 1.163-.14 1.51-.42.353-.287.58-.607.68-.96h2.28c-.06.7-.28 1.3-.66 1.8-.38.493-.884.87-1.51 1.13-.62.253-1.33.38-2.13.38Zm-1.7-6.78h3.98c-.02-.8-.214-1.417-.58-1.85-.367-.44-.97-.66-1.81-.66-.874 0-1.524.293-1.95.88-.427.58-.667 1.383-.72 2.41.053-.3.166-.503.34-.61.173-.113.42-.17.74-.17Zm8.454 6.63V71.08h2.02l.26 4.21-.21-.58c.047-.44.133-.887.26-1.34.133-.453.32-.87.56-1.25.247-.38.56-.683.94-.91.387-.233.857-.35 1.41-.35.133 0 .267.007.4.02.133.013.257.037.37.07v2.52a3.154 3.154 0 0 0-.73-.14 6.714 6.714 0 0 0-.7-.04c-.26 0-.54.053-.84.16-.3.1-.577.253-.83.46a1.767 1.767 0 0 0-.55.77V82h-2.36Zm7.774 0V71.08h2.39l-.03 10.92h-2.36Zm1.21-12.53c-.433 0-.8-.15-1.1-.45-.3-.307-.45-.697-.45-1.17 0-.467.15-.847.45-1.14.3-.293.667-.44 1.1-.44.42 0 .78.147 1.08.44.307.293.46.673.46 1.14 0 .473-.153.863-.46 1.17-.3.3-.66.45-1.08.45Zm8.52 12.68c-1.054 0-1.967-.213-2.74-.64-.767-.433-1.357-1.07-1.77-1.91-.414-.84-.62-1.87-.62-3.09 0-1.187.216-2.2.65-3.04.44-.847 1.043-1.49 1.81-1.93.766-.447 1.646-.67 2.64-.67.98 0 1.816.193 2.51.58.7.387 1.233.96 1.6 1.72.366.753.55 1.68.55 2.78 0 .213-.007.39-.02.53-.007.14-.017.307-.03.5h-7.36c.06 1.113.333 1.933.82 2.46.486.52 1.083.78 1.79.78.66 0 1.163-.14 1.51-.42.353-.287.58-.607.68-.96h2.28c-.06.7-.28 1.3-.66 1.8-.38.493-.884.87-1.51 1.13-.62.253-1.33.38-2.13.38Zm-1.7-6.78h3.98c-.02-.8-.214-1.417-.58-1.85-.367-.44-.97-.66-1.81-.66-.874 0-1.524.293-1.95.88-.427.58-.667 1.383-.72 2.41.053-.3.166-.503.34-.61.173-.113.42-.17.74-.17Zm12.397 6.8c-.82 0-1.553-.12-2.2-.36-.64-.24-1.15-.61-1.53-1.11-.373-.507-.58-1.153-.62-1.94h2.28c.087.56.31.957.67 1.19.367.233.817.35 1.35.35.387 0 .73-.037 1.03-.11.307-.08.547-.21.72-.39.18-.187.27-.437.27-.75 0-.22-.05-.4-.15-.54a1.138 1.138 0 0 0-.44-.38 4.018 4.018 0 0 0-.74-.3 46 46 0 0 0-1.02-.31c-.693-.2-1.323-.437-1.89-.71-.566-.273-1.016-.63-1.35-1.07-.333-.447-.5-1.027-.5-1.74 0-.973.36-1.733 1.08-2.28.72-.553 1.647-.83 2.78-.83.734 0 1.394.107 1.98.32.594.207 1.08.553 1.46 1.04.38.48.627 1.133.74 1.96l-2.28-.01c-.1-.387-.246-.683-.44-.89a1.505 1.505 0 0 0-.67-.44 2.422 2.422 0 0 0-.81-.13 2.1 2.1 0 0 0-.83.15c-.233.1-.413.24-.54.42-.126.18-.19.397-.19.65 0 .293.084.54.25.74.174.193.43.363.77.51.347.14.777.287 1.29.44.414.12.84.253 1.28.4.44.14.85.32 1.23.54.38.22.687.513.92.88.234.36.35.83.35 1.41 0 1.033-.39 1.84-1.17 2.42-.773.58-1.8.87-3.08.87ZM318.28 106V95.08h2.03l.26 4.12-.17-.83c.08-.6.236-1.167.47-1.7.233-.54.586-.977 1.06-1.31.473-.333 1.103-.5 1.89-.5.873 0 1.576.25 2.11.75.54.493.873 1.253 1 2.28l.05.16V106h-2.37v-6.41c0-.627-.06-1.13-.18-1.51-.12-.38-.31-.653-.57-.82-.254-.173-.59-.26-1.01-.26-.494 0-.94.147-1.34.44-.4.287-.687.613-.86.98V106h-2.37Zm12.66 0v-6.41c0-.627-.06-1.13-.18-1.51-.12-.38-.31-.653-.57-.82-.254-.173-.59-.26-1.01-.26-.494 0-.94.147-1.34.44-.4.287-.687.613-.86.98l-.02.78-.16-.65c.066-.593.21-1.17.43-1.73a3.3 3.3 0 0 1 1.04-1.4c.466-.373 1.093-.56 1.88-.56.986 0 1.76.323 2.32.97.56.64.84 1.62.84 2.94V106h-2.37Zm7.999.12c-.667 0-1.257-.123-1.77-.37a2.99 2.99 0 0 1-1.21-1.05c-.287-.447-.43-.963-.43-1.55 0-.647.116-1.18.35-1.6.233-.42.57-.753 1.01-1 .446-.253.97-.447 1.57-.58.426-.093.876-.17 1.35-.23.48-.06.923-.107 1.33-.14.406-.04.72-.067.94-.08v-.44c0-.74-.15-1.293-.45-1.66-.294-.373-.794-.56-1.5-.56-.454 0-.834.057-1.14.17-.307.107-.54.313-.7.62-.154.3-.237.74-.25 1.32h-2.15c-.074-.94.06-1.71.4-2.31.346-.607.86-1.053 1.54-1.34.686-.293 1.496-.44 2.43-.44.553 0 1.073.063 1.56.19.493.12.93.33 1.31.63.38.293.68.697.9 1.21.22.513.33 1.163.33 1.95V106h-2.31l.03-2.45c-.127.74-.447 1.353-.96 1.84-.514.487-1.24.73-2.18.73Zm.63-1.78c.346 0 .696-.06 1.05-.18a2.8 2.8 0 0 0 .94-.52 1.48 1.48 0 0 0 .52-.8v-2c-.267.027-.584.073-.95.14-.36.067-.67.127-.93.18-.747.153-1.287.357-1.62.61-.327.247-.49.627-.49 1.14 0 .293.066.55.2.77.14.213.323.377.55.49.226.113.47.17.73.17Zm11.286 1.78c-.94 0-1.727-.243-2.36-.73-.634-.487-1.11-1.153-1.43-2-.32-.853-.48-1.823-.48-2.91 0-1.233.206-2.263.62-3.09.42-.833.96-1.46 1.62-1.88.66-.42 1.363-.63 2.11-.63.726 0 1.296.12 1.71.36.413.24.716.52.91.84.193.32.316.607.37.86l.69.09-.82.85a1.174 1.174 0 0 0-.32-.48c-.154-.16-.377-.29-.67-.39-.287-.1-.66-.15-1.12-.15-.78 0-1.424.287-1.93.86-.507.573-.76 1.51-.76 2.81 0 1.167.23 2.07.69 2.71.466.64 1.073.96 1.82.96.506 0 .916-.083 1.23-.25.32-.167.566-.357.74-.57.173-.22.28-.4.32-.54l.1.34-.1.36c-.034.213-.1.467-.2.76-.1.287-.26.57-.48.85-.214.28-.504.513-.87.7-.367.18-.83.27-1.39.27Zm2.95-.12-.01-15.56h2.35V106h-2.34Zm9.693.15c-1.053 0-1.966-.213-2.74-.64-.766-.433-1.356-1.07-1.77-1.91-.413-.84-.62-1.87-.62-3.09 0-1.187.217-2.2.65-3.04.44-.847 1.044-1.49 1.81-1.93.767-.447 1.647-.67 2.64-.67.98 0 1.817.193 2.51.58.7.387 1.234.96 1.6 1.72.367.753.55 1.68.55 2.78 0 .213-.006.39-.02.53-.006.14-.016.307-.03.5h-7.36c.06 1.113.334 1.933.82 2.46.487.52 1.084.78 1.79.78.66 0 1.164-.14 1.51-.42.354-.287.58-.607.68-.96h2.28c-.06.7-.28 1.3-.66 1.8-.38.493-.883.87-1.51 1.13-.62.253-1.33.38-2.13.38Zm-1.7-6.78h3.98c-.02-.8-.213-1.417-.58-1.85-.366-.44-.97-.66-1.81-.66-.873 0-1.523.293-1.95.88-.426.58-.666 1.383-.72 2.41.054-.3.167-.503.34-.61.174-.113.42-.17.74-.17Zm17.259 6.75c-.72 0-1.293-.12-1.72-.36-.427-.24-.74-.52-.94-.84-.2-.327-.327-.613-.38-.86l-.52-.47.65-.28c.047.167.15.33.31.49.167.153.4.28.7.38.307.093.683.14 1.13.14.747 0 1.363-.29 1.85-.87.487-.58.73-1.543.73-2.89 0-1.213-.23-2.127-.69-2.74-.453-.62-1.033-.93-1.74-.93-.5 0-.913.07-1.24.21-.32.14-.563.303-.73.49-.167.187-.273.353-.32.5l-.15-.14.16-.38c.033-.507.16-.96.38-1.36.227-.407.56-.73 1-.97.447-.24 1.01-.36 1.69-.36.88 0 1.62.237 2.22.71.6.467 1.053 1.11 1.36 1.93.313.813.47 1.753.47 2.82 0 .967-.12 1.813-.36 2.54-.233.72-.553 1.32-.96 1.8-.4.48-.85.84-1.35 1.08-.5.24-1.017.36-1.55.36Zm-5.24-.12-.01-15.56h2.35v4.95l.01 8.15.17.38-.19.39-.1 1.69h-2.23Zm11.53 4.31v-2.2h.86c.48 0 .85-.043 1.11-.13.266-.087.463-.217.59-.39.133-.173.23-.383.29-.63.073-.293.153-.513.24-.66a.821.821 0 0 1 .33-.3h-.78l-3.56-10.91h2.62l1.25 4.98 1.01 3.61h.09l.91-3.6 1.25-4.99h2.6l-3.51 10.91c-.214.66-.444 1.257-.69 1.79a5.685 5.685 0 0 1-.86 1.36c-.327.373-.727.66-1.2.86-.467.2-1.03.3-1.69.3h-.86Zm14.043 0v-2.2h.86c.48 0 .85-.043 1.11-.13.266-.087.463-.217.59-.39.133-.173.23-.383.29-.63.073-.293.153-.513.24-.66a.821.821 0 0 1 .33-.3h-.78l-3.56-10.91h2.62l1.25 4.98 1.01 3.61h.09l.91-3.6 1.25-4.99h2.6L404.69 106c-.214.66-.444 1.257-.69 1.79a5.685 5.685 0 0 1-.86 1.36c-.327.373-.727.66-1.2.86-.467.2-1.03.3-1.69.3h-.86Zm14.741-4.16c-1.006 0-1.883-.217-2.63-.65-.746-.433-1.326-1.07-1.74-1.91-.413-.847-.62-1.883-.62-3.11 0-1.16.217-2.16.65-3 .44-.84 1.04-1.483 1.8-1.93.76-.453 1.62-.68 2.58-.68 1.04 0 1.93.227 2.67.68.747.447 1.32 1.09 1.72 1.93.4.84.6 1.84.6 3 0 1.227-.223 2.263-.67 3.11-.44.84-1.04 1.477-1.8 1.91-.76.433-1.613.65-2.56.65Zm.04-2.01c.767 0 1.394-.287 1.88-.86.487-.573.73-1.507.73-2.8 0-1.2-.236-2.1-.71-2.7-.473-.6-1.12-.9-1.94-.9-.766 0-1.393.297-1.88.89-.48.593-.72 1.497-.72 2.71 0 1.233.244 2.153.73 2.76.494.6 1.13.9 1.91.9Zm10.332 2.08c-.946 0-1.706-.33-2.28-.99-.573-.66-.86-1.607-.86-2.84v-7.31h2.36v6.68c0 .533.06.973.18 1.32.12.347.31.6.57.76.26.16.597.24 1.01.24.5 0 .95-.143 1.35-.43.407-.293.694-.623.86-.99v-7.58h2.36V106h-2.01l-.27-4.12.18.83c-.08.6-.24 1.167-.48 1.7-.233.533-.59.97-1.07 1.31-.473.333-1.106.5-1.9.5Zm8.523-.22V95.08h2.02l.26 4.21-.21-.58c.047-.44.133-.887.26-1.34.133-.453.32-.87.56-1.25.247-.38.56-.683.94-.91.387-.233.857-.35 1.41-.35.133 0 .267.007.4.02.133.013.257.037.37.07v2.52a3.154 3.154 0 0 0-.73-.14 6.714 6.714 0 0 0-.7-.04c-.26 0-.54.053-.84.16-.3.1-.577.253-.83.46a1.767 1.767 0 0 0-.55.77V106h-2.36Zm16.676.12c-.72 0-1.294-.12-1.72-.36-.427-.24-.74-.52-.94-.84-.2-.327-.327-.613-.38-.86l-.52-.47.65-.28c.046.167.15.33.31.49.166.153.4.28.7.38.306.093.683.14 1.13.14.746 0 1.363-.29 1.85-.87.486-.58.73-1.543.73-2.89 0-1.213-.23-2.127-.69-2.74-.454-.62-1.034-.93-1.74-.93-.5 0-.914.07-1.24.21-.32.14-.564.303-.73.49-.167.187-.274.353-.32.5l-.15-.14.16-.38c.033-.507.16-.96.38-1.36.226-.407.56-.73 1-.97.446-.24 1.01-.36 1.69-.36.88 0 1.62.237 2.22.71.6.467 1.053 1.11 1.36 1.93.313.813.47 1.753.47 2.82 0 .967-.12 1.813-.36 2.54-.234.72-.554 1.32-.96 1.8-.4.48-.85.84-1.35 1.08-.5.24-1.017.36-1.55.36Zm-5.24-.12-.01-15.56h2.35v4.95l.01 8.15.17.38-.19.39-.1 1.69h-2.23Zm14.846.22c-.947 0-1.707-.33-2.28-.99-.573-.66-.86-1.607-.86-2.84v-7.31h2.36v6.68c0 .533.06.973.18 1.32.12.347.31.6.57.76.26.16.597.24 1.01.24.5 0 .95-.143 1.35-.43.407-.293.693-.623.86-.99v-7.58h2.36V106h-2.01l-.27-4.12.18.83c-.08.6-.24 1.167-.48 1.7-.233.533-.59.97-1.07 1.31-.473.333-1.107.5-1.9.5Zm12.095-.05c-.82 0-1.553-.12-2.2-.36-.64-.24-1.15-.61-1.53-1.11-.373-.507-.58-1.153-.62-1.94h2.28c.087.56.31.957.67 1.19.367.233.817.35 1.35.35.387 0 .73-.037 1.03-.11.307-.08.547-.21.72-.39.18-.187.27-.437.27-.75 0-.22-.05-.4-.15-.54a1.138 1.138 0 0 0-.44-.38 3.976 3.976 0 0 0-.74-.3 46 46 0 0 0-1.02-.31c-.693-.2-1.323-.437-1.89-.71-.567-.273-1.017-.63-1.35-1.07-.333-.447-.5-1.027-.5-1.74 0-.973.36-1.733 1.08-2.28.72-.553 1.647-.83 2.78-.83.733 0 1.393.107 1.98.32.593.207 1.08.553 1.46 1.04.38.48.627 1.133.74 1.96l-2.28-.01c-.1-.387-.247-.683-.44-.89a1.51 1.51 0 0 0-.67-.44 2.43 2.43 0 0 0-.81-.13c-.32 0-.597.05-.83.15-.233.1-.413.24-.54.42-.127.18-.19.397-.19.65 0 .293.083.54.25.74.173.193.43.363.77.51.347.14.777.287 1.29.44.413.12.84.253 1.28.4.44.14.85.32 1.23.54.38.22.687.513.92.88.233.36.35.83.35 1.41 0 1.033-.39 1.84-1.17 2.42-.773.58-1.8.87-3.08.87Zm6.448-.17V95.08h2.39l-.03 10.92h-2.36Zm1.21-12.53c-.434 0-.8-.15-1.1-.45-.3-.307-.45-.697-.45-1.17 0-.467.15-.847.45-1.14.3-.293.666-.44 1.1-.44.42 0 .78.147 1.08.44.306.293.46.673.46 1.14 0 .473-.154.863-.46 1.17-.3.3-.66.45-1.08.45Zm4.141 12.53V95.08h2.02l.26 4.12-.17-.83c.08-.6.236-1.167.47-1.7.24-.54.596-.977 1.07-1.31.473-.333 1.106-.5 1.9-.5 1.033 0 1.833.323 2.4.97.566.64.85 1.62.85 2.94V106h-2.36v-6.41c0-.627-.064-1.13-.19-1.51-.12-.38-.317-.653-.59-.82-.274-.173-.637-.26-1.09-.26-.494 0-.944.147-1.35.44-.4.287-.687.613-.86.98V106h-2.36Zm16.117.15c-1.054 0-1.967-.213-2.74-.64-.767-.433-1.357-1.07-1.77-1.91-.414-.84-.62-1.87-.62-3.09 0-1.187.216-2.2.65-3.04.44-.847 1.043-1.49 1.81-1.93.766-.447 1.646-.67 2.64-.67.98 0 1.816.193 2.51.58.7.387 1.233.96 1.6 1.72.366.753.55 1.68.55 2.78 0 .213-.007.39-.02.53-.007.14-.017.307-.03.5h-7.36c.06 1.113.333 1.933.82 2.46.486.52 1.083.78 1.79.78.66 0 1.163-.14 1.51-.42.353-.287.58-.607.68-.96h2.28c-.06.7-.28 1.3-.66 1.8-.38.493-.884.87-1.51 1.13-.62.253-1.33.38-2.13.38Zm-1.7-6.78h3.98c-.02-.8-.214-1.417-.58-1.85-.367-.44-.97-.66-1.81-.66-.874 0-1.524.293-1.95.88-.427.58-.667 1.383-.72 2.41.053-.3.166-.503.34-.61.173-.113.42-.17.74-.17Zm12.397 6.8c-.82 0-1.553-.12-2.2-.36-.64-.24-1.15-.61-1.53-1.11-.373-.507-.58-1.153-.62-1.94h2.28c.087.56.31.957.67 1.19.367.233.817.35 1.35.35.387 0 .73-.037 1.03-.11.307-.08.547-.21.72-.39.18-.187.27-.437.27-.75 0-.22-.05-.4-.15-.54a1.138 1.138 0 0 0-.44-.38 3.976 3.976 0 0 0-.74-.3 46 46 0 0 0-1.02-.31c-.693-.2-1.323-.437-1.89-.71-.566-.273-1.016-.63-1.35-1.07-.333-.447-.5-1.027-.5-1.74 0-.973.36-1.733 1.08-2.28.72-.553 1.647-.83 2.78-.83.734 0 1.394.107 1.98.32.594.207 1.08.553 1.46 1.04.38.48.627 1.133.74 1.96l-2.28-.01c-.1-.387-.246-.683-.44-.89a1.505 1.505 0 0 0-.67-.44 2.422 2.422 0 0 0-.81-.13 2.1 2.1 0 0 0-.83.15c-.233.1-.413.24-.54.42-.126.18-.19.397-.19.65 0 .293.084.54.25.74.174.193.43.363.77.51.347.14.777.287 1.29.44.414.12.84.253 1.28.4.44.14.85.32 1.23.54.38.22.687.513.92.88.234.36.35.83.35 1.41 0 1.033-.39 1.84-1.17 2.42-.773.58-1.8.87-3.08.87Zm10.235 0c-.82 0-1.554-.12-2.2-.36-.64-.24-1.15-.61-1.53-1.11-.374-.507-.58-1.153-.62-1.94h2.28c.086.56.31.957.67 1.19.366.233.816.35 1.35.35.386 0 .73-.037 1.03-.11.306-.08.546-.21.72-.39.18-.187.27-.437.27-.75 0-.22-.05-.4-.15-.54a1.145 1.145 0 0 0-.44-.38 4.005 4.005 0 0 0-.74-.3 49.521 49.521 0 0 0-1.02-.31c-.694-.2-1.324-.437-1.89-.71-.567-.273-1.017-.63-1.35-1.07-.334-.447-.5-1.027-.5-1.74 0-.973.36-1.733 1.08-2.28.72-.553 1.646-.83 2.78-.83.733 0 1.393.107 1.98.32.593.207 1.08.553 1.46 1.04.38.48.626 1.133.74 1.96l-2.28-.01c-.1-.387-.247-.683-.44-.89a1.516 1.516 0 0 0-.67-.44 2.43 2.43 0 0 0-.81-.13c-.32 0-.597.05-.83.15-.234.1-.414.24-.54.42-.127.18-.19.397-.19.65 0 .293.083.54.25.74.173.193.43.363.77.51.346.14.776.287 1.29.44.413.12.84.253 1.28.4.44.14.85.32 1.23.54.38.22.686.513.92.88.233.36.35.83.35 1.41 0 1.033-.39 1.84-1.17 2.42-.774.58-1.8.87-3.08.87Zm10.177-.17V95.08h2.03l.26 4.12-.17-.83c.08-.6.237-1.167.47-1.7.234-.54.587-.977 1.06-1.31.474-.333 1.104-.5 1.89-.5.874 0 1.577.25 2.11.75.54.493.874 1.253 1 2.28l.05.16V106h-2.37v-6.41c0-.627-.06-1.13-.18-1.51-.12-.38-.31-.653-.57-.82-.253-.173-.59-.26-1.01-.26-.493 0-.94.147-1.34.44-.4.287-.686.613-.86.98V106h-2.37Zm12.66 0v-6.41c0-.627-.06-1.13-.18-1.51-.12-.38-.31-.653-.57-.82-.253-.173-.59-.26-1.01-.26-.493 0-.94.147-1.34.44-.4.287-.686.613-.86.98l-.02.78-.16-.65c.067-.593.21-1.17.43-1.73a3.317 3.317 0 0 1 1.04-1.4c.467-.373 1.094-.56 1.88-.56.987 0 1.76.323 2.32.97.56.64.84 1.62.84 2.94V106h-2.37Zm9.559.15c-1.007 0-1.883-.217-2.63-.65-.747-.433-1.327-1.07-1.74-1.91-.413-.847-.62-1.883-.62-3.11 0-1.16.217-2.16.65-3 .44-.84 1.04-1.483 1.8-1.93.76-.453 1.62-.68 2.58-.68 1.04 0 1.93.227 2.67.68.747.447 1.32 1.09 1.72 1.93.4.84.6 1.84.6 3 0 1.227-.223 2.263-.67 3.11-.44.84-1.04 1.477-1.8 1.91-.76.433-1.613.65-2.56.65Zm.04-2.01c.767 0 1.393-.287 1.88-.86.487-.573.73-1.507.73-2.8 0-1.2-.237-2.1-.71-2.7-.473-.6-1.12-.9-1.94-.9-.767 0-1.393.297-1.88.89-.48.593-.72 1.497-.72 2.71 0 1.233.243 2.153.73 2.76.493.6 1.13.9 1.91.9Zm7.272 1.86V95.08h2.02l.26 4.12-.17-.83c.08-.6.237-1.167.47-1.7.24-.54.597-.977 1.07-1.31.474-.333 1.107-.5 1.9-.5 1.034 0 1.834.323 2.4.97.567.64.85 1.62.85 2.94V106h-2.36v-6.41c0-.627-.063-1.13-.19-1.51-.12-.38-.316-.653-.59-.82-.273-.173-.636-.26-1.09-.26-.493 0-.943.147-1.35.44-.4.287-.686.613-.86.98V106h-2.36Zm14.61.16c-.867 0-1.544-.22-2.03-.66-.48-.447-.72-1.083-.72-1.91v-5.52c0-.22.046-.417.14-.59a.627.627 0 0 1 .41-.34l-.55-1.62v-.29l.53-3.27h1.8V103c0 .387.083.657.25.81.173.153.493.23.96.23h.83l.69-.02v2.01c-.347.06-.727.097-1.14.11-.414.013-.804.02-1.17.02Zm-4.18-9.02v-2.06h6.51v2.06h-6.51ZM579.1 106V90.44h2.34v4.65l-.16 3.11.09.88-.12-.71c.08-.6.233-1.167.46-1.7.233-.54.583-.977 1.05-1.31.473-.333 1.107-.5 1.9-.5 1.033 0 1.83.323 2.39.97.567.64.85 1.62.85 2.94V106h-2.37v-6.41c0-.927-.137-1.59-.41-1.99-.273-.4-.763-.6-1.47-.6-.487 0-.927.163-1.32.49-.387.32-.68.677-.88 1.07V106h-2.35Zm11.758 0V90.44h2.36V106h-2.36Zm4.997 4.31v-2.2h.86c.48 0 .85-.043 1.11-.13.266-.087.463-.217.59-.39.133-.173.23-.383.29-.63.073-.293.153-.513.24-.66a.821.821 0 0 1 .33-.3h-.78l-3.56-10.91h2.62l1.25 4.98 1.01 3.61h.09l.91-3.6 1.25-4.99h2.6l-3.51 10.91c-.214.66-.444 1.257-.69 1.79a5.685 5.685 0 0 1-.86 1.36c-.327.373-.727.66-1.2.86-.467.2-1.03.3-1.69.3h-.86Zm11.228-4.16c-.426 0-.79-.147-1.09-.44-.293-.3-.44-.69-.44-1.17 0-.467.147-.85.44-1.15.3-.3.664-.45 1.09-.45.434 0 .797.15 1.09.45.294.3.44.683.44 1.15 0 .48-.15.87-.45 1.17-.293.293-.653.44-1.08.44Z" fill="#1C383C"/></svg>